<svg xmlns="http://www.w3.org/2000/svg" fill="none" viewBox="0 0 100 100"
  id="Github-Actions--Streamline-Svg-Logos" height="100" width="100" style="background:white">
  <path fill="#4a7ebf"
    d="M21.54447916666667 1.0416031250000002c11.323125000000001 0 20.5028125 9.176667708333335 20.5028125 20.497667708333335 0 11.1265625 -8.869479166666666 20.176041666666666 -19.924895833333334 20.483020833333335 0 0.9414583333333334 0.0415625 2.7201041666666668 0.5743750000000001 3.7940625000000003 0.7390625000000001 1.4894791666666667 5.1727083333333335 4.2628125 9.520729166666667 4.2628125h1.5620833333333335c0.9816666666666668 -6.988541666666666 6.982916666666667 -12.366666666666667 14.243645833333334 -12.366666666666667 7.231354166666667 0 13.215104166666668 5.3343750000000005 14.232812500000001 12.281458333333335h8.081666666666667c1.0181250000000002 -6.9470833333333335 7.001458333333334 -12.281458333333335 14.232812500000001 -12.281458333333335 7.9459375 0 14.387708333333334 6.439791666666667 14.387708333333334 14.384166666666667 0 7.943958333333334 -6.441770833333334 14.383750000000001 -14.387708333333334 14.383750000000001 -7.231354166666667 0 -13.215000000000002 -5.334583333333334 -14.232812500000001 -12.281770833333335h-8.08125c-1.0178125 6.9471875 -7.001458333333334 12.281770833333335 -14.233229166666668 12.281770833333335 -7.217708333333334 0 -13.193229166666667 -5.313958333333334 -14.227916666666667 -12.2421875l-1.7270833333333333 0.051458333333333335c-2.84375 -0.02135416666666667 -5.848020833333333 -0.7807291666666668 -8.261041666666667 -2.4202083333333335 -0.6578125 -0.4470833333333334 -1.3059375000000002 -0.9167708333333334 -1.9819791666666668 -1.3617708333333334l-0.00020833333333333335 0.9339583333333333c-0.003645833333333334 0.301875 -0.05812500000000001 4.841041666666667 -0.0625 9.880833333333333l-0.00010416666666666667 1.0670833333333334c0.001979166666666667 3.3051041666666667 0.028125 6.710625 0.1059375 9.194583333333334 0.17062500000000003 5.449270833333334 4.6031249999999995 9.847291666666667 9.494375 10.876770833333335 0.6357291666666667 0.1335416666666667 1.7288541666666668 0.150625 2.417604166666667 0.09114583333333333 0.9834375000000001 -6.986041666666667 6.983854166666667 -12.362083333333334 14.242916666666668 -12.362083333333334 7.946041666666667 0 14.387708333333334 6.440104166666667 14.387708333333334 14.384166666666667 0 7.943958333333334 -6.441666666666667 14.3840625 -14.387708333333334 14.3840625 -7.178750000000001 0 -13.128125 -5.256875 -14.2103125 -12.13h-1.2445833333333336c-9.346458333333334 -0.5102083333333334 -15.157395833333334 -9.082812500000001 -15.056041666666667 -16.035208333333337 0.12791666666666668 -8.750208333333333 0.0315625 -17.503958333333333 0.030104166666666668 -26.256354166666668v-2.8931250000000004C8.135291666666667 39.78229166666667 1.0416666666666667 31.490000000000002 1.0416666666666667 21.539270833333337 1.0416666666666667 10.218270833333333 10.22096875 1.0416031250000002 21.54447916666667 1.0416031250000002ZM48.02322916666667 74.3946875c-5.623020833333334 0 -10.181666666666667 4.557500000000001 -10.181666666666667 10.179479166666667 0 5.621979166666667 4.558645833333333 10.179479166666667 10.181666666666667 10.179479166666667 5.6234375000000005 0 10.182083333333335 -4.557500000000001 10.182083333333335 -10.179479166666667 0 -5.621979166666667 -4.558645833333333 -10.179479166666667 -10.182083333333335 -10.179479166666667Zm0 -32.4775c-5.623020833333334 0 -10.181666666666667 4.557500000000001 -10.181666666666667 10.179479166666667 0 5.621666666666667 4.558645833333333 10.179166666666667 10.181666666666667 10.179166666666667 5.6234375000000005 0 10.182083333333335 -4.557500000000001 10.182083333333335 -10.179166666666667 0 -5.621979166666667 -4.558645833333333 -10.179479166666667 -10.182083333333335 -10.179479166666667Zm36.547291666666666 0c-5.6234375000000005 0 -10.181666666666667 4.557500000000001 -10.181666666666667 10.179479166666667 0 5.621666666666667 4.558229166666667 10.179166666666667 10.181666666666667 10.179166666666667 5.623333333333333 0 10.181979166666666 -4.557500000000001 10.181979166666666 -10.179166666666667 0 -5.621979166666667 -4.558645833333333 -10.179479166666667 -10.181979166666666 -10.179479166666667Zm5.79875 5.893541666666667c0.8011458333333334 0.7992708333333334 0.8232291666666667 2.0834375000000005 0.06510416666666667 2.9089583333333335l-0.061250000000000006 0.06447916666666667 -6.238125 6.2515625c-0.7948958333333334 0.7967708333333334 -2.071041666666667 0.8234375 -2.8981250000000003 0.07572916666666667l-0.06583333333333334 -0.06239583333333334 -3.0540625000000006 -3.0063541666666667c-0.8275 -0.8145833333333334 -0.8380208333333334 -2.1457291666666665 -0.023125000000000003 -2.9730208333333334 0.7941666666666667 -0.8062500000000001 2.0783333333333336 -0.8366666666666668 2.9092708333333337 -0.0840625l0.06447916666666667 0.061354166666666675 1.5652083333333333 1.5402083333333334 4.762604166666667 -4.7726041666666665c0.8201041666666667 -0.8223958333333333 2.1515625000000003 -0.82375 2.973854166666667 -0.003854166666666667Zm-36.71489583333334 -0.030833333333333338c0.8011458333333334 0.7992708333333334 0.8232291666666667 2.0834375000000005 0.06520833333333334 2.9093750000000003l-0.061354166666666675 0.06406250000000001 -6.238125 6.251666666666667c-0.7948958333333334 0.7967708333333334 -2.0709375000000003 0.8233333333333334 -2.8981250000000003 0.075625l-0.06583333333333334 -0.06229166666666667 -3.0540625000000006 -3.0063541666666667c-0.8275 -0.8146875000000001 -0.8380208333333334 -2.1458333333333335 -0.023125000000000003 -2.9730208333333334 0.7938541666666667 -0.8062500000000001 2.0783333333333336 -0.8367708333333334 2.9092708333333337 -0.08375l0.06447916666666667 0.060937500000000006 1.5652083333333333 1.5403125 4.762604166666667 -4.772708333333334c0.8202083333333334 -0.8219791666666667 2.151666666666667 -0.82375 2.973854166666667 -0.003854166666666667ZM21.54447916666667 5.246260416666667c-9.000520833333333 0 -16.297104166666667 7.2943645833333335 -16.297104166666667 16.293010416666668 0 8.998333333333335 7.296583333333333 16.293125000000003 16.297104166666667 16.293125000000003s16.297083333333337 -7.294791666666668 16.297083333333337 -16.293125000000003c0 -8.998645833333335 -7.2965625 -16.293010416666668 -16.297083333333337 -16.293010416666668Zm-1.6957291666666667 6.554885416666668c3.42875 2.0598958333333335 6.811145833333335 4.190625 10.147708333333334 6.391770833333334 2.795 1.8437500000000002 2.7880208333333334 5.187500000000001 -0.038229166666666675 7.035416666666666 -3.396041666666667 2.2221875000000004 -6.846145833333334 4.352916666666667 -10.349479166666667 6.392083333333334 -2.8515625 1.6597916666666668 -6.043333333333333 -0.24875000000000003 -6.120729166666667 -3.5739583333333336 -0.04979166666666667 -2.142916666666667 -0.009166666666666668 -4.288020833333334 -0.011979166666666667 -6.4323958333333335 -0.0023958333333333336 -2.0861458333333336 -0.043437500000000004 -4.1734375 0.007083333333333334 -6.258645833333334 0.08510416666666666 -3.5370833333333334 3.341354166666667 -5.380177083333334 6.3656250000000005 -3.5542708333333337Zm-2.2602083333333334 3.3931250000000004v1.4796875000000003c-0.0003125 0.7327083333333334 -0.0003125 1.4555208333333334 -0.0007291666666666667 2.1703125l-0.0003125 1.4190625000000001v2.096354166666667c0.0003125 1.618125 0.0010416666666666669 3.210625 0.003854166666666667 4.8031250000000005 0.0014583333333333334 0.7494791666666667 0.3914583333333334 0.7190625 0.8961458333333333 0.40645833333333337 2.9089583333333335 -1.8031250000000003 5.819375 -3.6040625000000004 8.731041666666668 -5.403333333333333 0.48125000000000007 -0.2967708333333333 0.49489583333333337 -0.606875 0.0228125 -0.9046875000000001 -3.1185416666666668 -1.9653125000000002 -6.241250000000001 -3.9239583333333337 -9.652812500000001 -6.066979166666667Z"
    stroke-width="1.0417"></path>
  <path fill="#85b3df"
    d="M51.9990625 86.67239583333334c1.1611458333333335 0 2.1029166666666668 -0.9411458333333333 2.1029166666666668 -2.102291666666667 0 -1.1608333333333334 -0.9417708333333334 -2.102291666666667 -2.1029166666666668 -2.102291666666667 -1.1610416666666667 0 -2.1028125 0.9414583333333334 -2.1028125 2.102291666666667 0 1.1611458333333335 0.9417708333333334 2.102291666666667 2.1028125 2.102291666666667Z"
    stroke-width="1.0417"></path>
  <path fill="#85b3df"
    d="M43.949062500000004 86.67239583333334c1.1611458333333335 0 2.1028125 -0.9411458333333333 2.1028125 -2.102291666666667 0 -1.1608333333333334 -0.9416666666666668 -2.102291666666667 -2.1028125 -2.102291666666667s-2.1028125 0.9414583333333334 -2.1028125 2.102291666666667c0 1.1611458333333335 0.9416666666666668 2.102291666666667 2.1028125 2.102291666666667Z"
    stroke-width="1.0417"></path>
  <path fill="#85b3df"
    d="M84.57104166666667 94.75375000000001c-5.623333333333333 0 -10.181666666666667 -4.557500000000001 -10.181666666666667 -10.179479166666667 0 -5.621979166666667 4.558333333333334 -10.179479166666667 10.181666666666667 -10.179479166666667 5.623020833333334 0 10.181979166666666 4.557500000000001 10.181979166666666 10.179479166666667 0 5.621979166666667 -4.558958333333334 10.179479166666667 -10.181979166666666 10.179479166666667Zm0 -24.563645833333336c-7.231354166666667 0 -13.215000000000002 5.3346875 -14.232812500000001 12.281770833333335h-2.353125c-1.0271875000000001 0 -1.8606250000000002 0.9415625000000001 -1.8606250000000002 2.1023958333333335 0 1.1611458333333335 0.8334375 2.102291666666667 1.8606250000000002 2.102291666666667h2.353125C71.35604166666667 93.62375 77.33968750000001 98.95833333333334 84.57104166666667 98.95833333333334c7.946041666666667 0 14.387708333333334 -6.440104166666667 14.387708333333334 -14.3840625 0 -7.9440625 -6.441666666666667 -14.384166666666667 -14.387708333333334 -14.384166666666667Z"
    stroke-width="1.0417"></path>
</svg>